<?xml version="1.0" encoding="UTF-8"?>
<svg version="1.1" xmlns="http://www.w3.org/2000/svg" width="745" height="320">
<path d="M0 0 C245.85 0 491.7 0 745 0 C745 105.6 745 211.2 745 320 C499.15 320 253.3 320 0 320 C0 214.4 0 108.8 0 0 Z " fill="#1E1F22" transform="translate(0,0)"/>
<path d="M0 0 C6.1299149 5.07110934 11.73056588 10.59521219 17.34155273 16.22802734 C18.36698773 17.25374489 19.39264391 18.27924133 20.41850281 19.30453491 C23.18470576 22.07045254 25.9478282 24.83942871 28.71038318 27.60898924 C31.60468583 30.50956971 34.50184618 33.40729308 37.3986969 36.30532837 C42.87578283 41.7855146 48.350316 47.26824355 53.82392317 52.75190413 C60.05898246 58.99816505 66.29690274 65.24156547 72.5350579 71.4847343 C85.35987792 84.31998923 98.18112366 97.15880911 111 110 C109.48258646 113.56843492 107.39314915 115.85370271 104.65939331 118.58111572 C103.74791534 119.49534302 102.83643738 120.40957031 101.89733887 121.35150146 C100.88461387 122.35714871 99.87179328 123.36269969 98.85888672 124.36816406 C97.79413624 125.4323503 96.72982617 126.49697733 95.66592407 127.56201172 C92.77803402 130.45047575 89.88401759 133.3327304 86.98887014 136.21391773 C83.96370845 139.22657973 80.94420688 142.24490374 77.92410278 145.26263428 C72.20494789 150.97557217 66.4807137 156.68339253 60.75464165 162.38939643 C54.23566277 168.88602318 47.72235975 175.38832763 41.20952964 181.89111757 C27.8126633 195.26707693 14.4086781 208.63588184 1 222 C-5.1299149 216.92889066 -10.73056588 211.40478781 -16.34155273 205.77197266 C-17.36698773 204.74625511 -18.39264391 203.72075867 -19.41850281 202.69546509 C-22.18470576 199.92954746 -24.9478282 197.16057129 -27.71038318 194.39101076 C-30.60468583 191.49043029 -33.50184618 188.59270692 -36.3986969 185.69467163 C-41.87578283 180.2144854 -47.350316 174.73175645 -52.82392317 169.24809587 C-59.05898246 163.00183495 -65.29690274 156.75843453 -71.5350579 150.5152657 C-84.35987792 137.68001077 -97.18112366 124.84119089 -110 112 C-108.48258646 108.43156508 -106.39314915 106.14629729 -103.65939331 103.41888428 C-102.29217636 102.04754333 -102.29217636 102.04754333 -100.89733887 100.64849854 C-99.88461387 99.64285129 -98.87179328 98.63730031 -97.85888672 97.63183594 C-96.79413624 96.5676497 -95.72982617 95.50302267 -94.66592407 94.43798828 C-91.77803402 91.54952425 -88.88401759 88.6672696 -85.98887014 85.78608227 C-82.96370845 82.77342027 -79.94420688 79.75509626 -76.92410278 76.73736572 C-71.20494789 71.02442783 -65.4807137 65.31660747 -59.75464165 59.61060357 C-53.23566277 53.11397682 -46.72235975 46.61167237 -40.20952964 40.10888243 C-26.8126633 26.73292307 -13.4086781 13.36411816 0 0 Z " fill="#2BD6A5" transform="translate(136,53)"/>
<path d="M0 0 C3.62168388 1.8426111 6.29158262 3.99064735 9 7 C9.7425 6.21625 10.485 5.4325 11.25 4.625 C16.13119405 -0.03432159 19.7071616 -0.39552697 26.30859375 -0.24609375 C29.87888506 0.08036249 32.10180151 0.87936696 35 3 C39.60457084 8.97349731 40.14286106 13.48820567 40.09765625 20.82421875 C40.0962413 21.68561966 40.09482635 22.54702057 40.09336853 23.43452454 C40.0877714 26.18555169 40.07521946 28.93649744 40.0625 31.6875 C40.05748463 33.5527332 40.05292179 35.41796767 40.04882812 37.28320312 C40.03780292 41.85550011 40.02054027 46.42773625 40 51 C35.38 51 30.76 51 26 51 C25.970271 49.33445068 25.970271 49.33445068 25.93994141 47.63525391 C25.86398919 43.52385398 25.7752564 39.41281282 25.68261719 35.30175781 C25.64428435 33.52090527 25.60943911 31.73997416 25.578125 29.95898438 C25.53256729 27.40205766 25.47455893 24.8456739 25.4140625 22.2890625 C25.40251129 21.49005524 25.39096008 20.69104797 25.37905884 19.86782837 C25.42741056 15.46542788 25.42741056 15.46542788 23 12 C17.72744106 11.40900252 17.72744106 11.40900252 13.0625 13.3125 C10.63719228 17.16445932 10.78746999 21.1214061 10.68359375 25.51171875 C10.66281265 26.23994339 10.64203156 26.96816803 10.62062073 27.71846008 C10.55531254 30.04137875 10.49632763 32.36440906 10.4375 34.6875 C10.39429695 36.26368335 10.35068208 37.83985548 10.30664062 39.41601562 C10.1996504 43.27722975 10.09833039 47.13855603 10 51 C5.38 51 0.76 51 -4 51 C-4.01981934 49.88963379 -4.03963867 48.77926758 -4.06005859 47.63525391 C-4.13601081 43.52385398 -4.2247436 39.41281282 -4.31738281 35.30175781 C-4.35571565 33.52090527 -4.39056089 31.73997416 -4.421875 29.95898438 C-4.46743271 27.40205766 -4.52544107 24.8456739 -4.5859375 22.2890625 C-4.59748871 21.49005524 -4.60903992 20.69104797 -4.62094116 19.86782837 C-4.57258944 15.46542788 -4.57258944 15.46542788 -7 12 C-11.09969737 11.33915147 -11.09969737 11.33915147 -15 12 C-18.83831083 15.78189699 -20.55259533 18.11979566 -20.71894836 23.71115112 C-20.71304939 24.74745163 -20.71304939 24.74745163 -20.70703125 25.8046875 C-20.72215256 26.5286673 -20.73727386 27.25264709 -20.75285339 27.99856567 C-20.79554044 30.29103195 -20.80454885 32.58217686 -20.8125 34.875 C-20.83565946 36.43753466 -20.86102782 38.00003824 -20.88867188 39.5625 C-20.95133504 43.3751158 -20.98381866 47.18691511 -21 51 C-25.29 51 -29.58 51 -34 51 C-34 34.5 -34 18 -34 1 C-29.71 1 -25.42 1 -21 1 C-20.67 2.65 -20.34 4.3 -20 6 C-19.236875 5.195625 -18.47375 4.39125 -17.6875 3.5625 C-12.70333412 -1.18984421 -6.55667096 -0.64179054 0 0 Z " fill="#F5F5F5" transform="translate(487,149)"/>
<path d="M0 0 C5.09800861 3.30964113 7.49553661 7.56501341 9.71484375 13.11328125 C9.71484375 17.73328125 9.71484375 22.35328125 9.71484375 27.11328125 C-1.17515625 27.11328125 -12.06515625 27.11328125 -23.28515625 27.11328125 C-21.85737992 32.13562464 -21.85737992 32.13562464 -20.28515625 37.11328125 C-17.4926604 38.17271498 -14.75183132 38.27538163 -11.78515625 38.30078125 C-11.03234375 38.31496094 -10.27953125 38.32914063 -9.50390625 38.34375 C-6.9669599 38.08022916 -5.43161907 37.48210606 -3.28515625 36.11328125 C-2.62515625 35.12328125 -1.96515625 34.13328125 -1.28515625 33.11328125 C3.11598772 33.61626913 5.42679394 35.20100856 8.71484375 38.11328125 C7.40599273 43.67589809 3.32598404 46.22789445 -1.28515625 49.11328125 C-8.14823682 51.40097477 -17.59873563 51.2503495 -24.34765625 48.55078125 C-31.2006874 44.88550659 -34.67473924 39.28819886 -37.28515625 32.11328125 C-38.43321041 22.72793853 -38.16821769 13.88838255 -32.28515625 6.11328125 C-24.28196316 -2.78329153 -10.97409414 -4.89542043 0 0 Z " fill="#F8F8F8" transform="translate(394.28515625,150.88671875)"/>
<path d="M0 0 C3.9416997 3.01774741 5.15099172 4.79349492 7.06640625 9.58203125 C7.06640625 14.86203125 7.06640625 20.14203125 7.06640625 25.58203125 C-3.82359375 25.58203125 -14.71359375 25.58203125 -25.93359375 25.58203125 C-23.05532574 34.22063642 -23.05532574 34.22063642 -18.93359375 36.58203125 C-14.6227572 37.20363128 -10.95216877 37.05881105 -6.99609375 35.20703125 C-4.87275632 33.59973898 -4.87275632 33.59973898 -2.93359375 31.58203125 C1.02658568 31.86490121 3.91189958 34.35953791 7.06640625 36.58203125 C4.4630647 41.64408427 0.94513871 45.14015304 -4.171875 47.703125 C-10.83196644 49.8226732 -20.14804888 49.92207347 -26.55859375 46.89453125 C-32.42798368 43.24839508 -37.11087421 38.36333189 -38.93359375 31.58203125 C-39.97665709 22.41628914 -40.36309932 12.20189491 -34.421875 4.6640625 C-25.45746374 -5.10613854 -11.53070761 -6.8956291 0 0 Z " fill="#F9F9F9" transform="translate(575.93359375,152.41796875)"/>
<path d="M0 0 C14.19 0 28.38 0 43 0 C43 3.63 43 7.26 43 11 C33.43 11 23.86 11 14 11 C14 16.61 14 22.22 14 28 C22.58 28 31.16 28 40 28 C40 31.63 40 35.26 40 39 C31.42 39 22.84 39 14 39 C14 47.91 14 56.82 14 66 C9.38 66 4.76 66 0 66 C0 44.22 0 22.44 0 0 Z " fill="#F9F9F9" transform="translate(309,134)"/>
<path d="M0 0 C4.0262268 1.45517186 6.83004827 4.34534446 9 8 C9.82893144 10.73745649 10.12278936 13.18087774 10.11352539 16.03417969 C10.11344986 16.81468689 10.11337433 17.59519409 10.11329651 18.39935303 C10.10813522 19.23178528 10.10297394 20.06421753 10.09765625 20.921875 C10.0962413 21.78186096 10.09482635 22.64184692 10.09336853 23.52789307 C10.08778097 26.26863109 10.07523075 29.00928676 10.0625 31.75 C10.05748339 33.6106759 10.05292077 35.47135309 10.04882812 37.33203125 C10.03781561 41.88805246 10.02055951 46.44401228 10 51 C5.71 51 1.42 51 -3 51 C-3.01458252 49.92516357 -3.02916504 48.85032715 -3.04418945 47.74291992 C-3.1021489 43.75625283 -3.17938129 39.77015199 -3.26245117 35.78393555 C-3.29571172 34.05844307 -3.32374019 32.33284151 -3.34643555 30.60717773 C-3.37996153 28.12696834 -3.43227406 25.6477597 -3.48828125 23.16796875 C-3.49467117 22.39599655 -3.5010611 21.62402435 -3.50764465 20.82865906 C-3.60970897 16.70177223 -3.60970897 16.70177223 -5.28979492 13.0168457 C-8.33984772 11.20335963 -11.62018836 11.38728561 -15 12 C-17.8100346 13.79363911 -19.50940468 15.01880935 -21 18 C-21.15626576 20.47832659 -21.25813198 22.93311331 -21.31640625 25.4140625 C-21.33718735 26.14370209 -21.35796844 26.87334167 -21.37937927 27.62509155 C-21.44481917 29.95829763 -21.50373368 32.29161721 -21.5625 34.625 C-21.60569053 36.20574095 -21.64930499 37.78647039 -21.69335938 39.3671875 C-21.80049481 43.24467504 -21.90177782 47.12227685 -22 51 C-26.29 51 -30.58 51 -35 51 C-35 34.5 -35 18 -35 1 C-31.04 1 -27.08 1 -23 1 C-22.67 2.98 -22.34 4.96 -22 7 C-21.51789062 6.57847656 -21.03578125 6.15695313 -20.5390625 5.72265625 C-19.90742187 5.17480469 -19.27578125 4.62695312 -18.625 4.0625 C-17.68527344 3.24458984 -17.68527344 3.24458984 -16.7265625 2.41015625 C-12.02143232 -1.43272156 -5.77011138 -0.51243082 0 0 Z " fill="#FAFAFA" transform="translate(629,149)"/>
<path d="M0 0 C0 3.96 0 7.92 0 12 C4.62 12 9.24 12 14 12 C14 15.3 14 18.6 14 22 C9.38 22 4.76 22 0 22 C0.14026303 26.45857367 0.28694494 30.91677242 0.4375 35.375 C0.47681641 36.64601562 0.51613281 37.91703125 0.55664062 39.2265625 C0.59853516 40.43828125 0.64042969 41.65 0.68359375 42.8984375 C0.72025146 44.01911621 0.75690918 45.13979492 0.79467773 46.29443359 C0.82596013 48.96712771 0.82596013 48.96712771 2 51 C5.96388638 51.07622858 9.1273408 50.9681648 13 50 C13.99 53.3 14.98 56.6 16 60 C10.18741329 63.98577374 3.8425791 63.78449951 -3 63 C-7.48983896 60.87323418 -10.22862733 58.10573729 -13 54 C-14.19641027 50.50872375 -14.11432306 47.15107422 -14.09765625 43.484375 C-14.09282227 41.60878906 -14.09282227 41.60878906 -14.08789062 39.6953125 C-14.07951172 38.39335937 -14.07113281 37.09140625 -14.0625 35.75 C-14.05798828 34.43257812 -14.05347656 33.11515625 -14.04882812 31.7578125 C-14.03704316 28.50516259 -14.02059011 25.25260416 -14 22 C-16.31 22 -18.62 22 -21 22 C-21 18.7 -21 15.4 -21 12 C-18.69 12 -16.38 12 -14 12 C-14 8.7 -14 5.4 -14 2 C-9.03075968 0.81331575 -5.14709808 0 0 0 Z " fill="#F5F5F5" transform="translate(667,138)"/>
<path d="M0 0 C4.29 0 8.58 0 13 0 C13.33 1.98 13.66 3.96 14 6 C14.78375 5.195625 15.5675 4.39125 16.375 3.5625 C20.04294337 -0.01811138 21.62452983 -0.120645 26.625 -0.0625 C28.12933594 -0.04896484 28.12933594 -0.04896484 29.6640625 -0.03515625 C30.43492187 -0.02355469 31.20578125 -0.01195312 32 0 C32.16682272 4.92127034 32.24828052 8.50343896 30 13 C28.783125 12.95875 27.56625 12.9175 26.3125 12.875 C22.73928151 12.90656553 20.06560255 12.98546118 17 15 C13.02806128 21.69777902 13.44692582 28.82899883 13.3125 36.4375 C13.27833984 37.74138672 13.24417969 39.04527344 13.20898438 40.38867188 C13.12684385 43.59215226 13.06173702 46.79606146 13 50 C8.71 50 4.42 50 0 50 C0 33.5 0 17 0 0 Z " fill="#F8F8F8" transform="translate(414,150)"/>
<path d="M0 0 C2.9375 1.5625 2.9375 1.5625 5 4 C5.625 7.5 5.625 7.5 5 11 C2.30471529 14.18533648 0.61594555 14.90100875 -3.5 15.5625 C-7 15 -7 15 -9.9375 12.875 C-12 10 -12 10 -12.625 6.9375 C-12 4 -12 4 -9.9375 1.625 C-6.24891818 -0.41549207 -4.16191207 -0.59455887 0 0 Z " fill="#F4F4F4" transform="translate(702,185)"/>
<path d="M0 0 C2.875 1.5625 2.875 1.5625 5 4 C5.33 6.31 5.66 8.62 6 11 C-0.6 11 -7.2 11 -14 11 C-13 5 -13 5 -10.375 2.125 C-6.42220098 -0.36379938 -4.58413736 -0.75013157 0 0 Z " fill="#242528" transform="translate(385,159)"/>
<path d="M0 0 C3.35914922 2.23943282 3.81681636 3.26842083 5 7 C5 7.99 5 8.98 5 10 C-1.6 10 -8.2 10 -15 10 C-14 3 -14 3 -11.4375 0.5 C-6.88724701 -1.48556494 -4.80568672 -1.10294449 0 0 Z " fill="#242528" transform="translate(566,160)"/>
</svg>
