<?xml version="1.0" encoding="UTF-8"?>
<svg version="1.1" xmlns="http://www.w3.org/2000/svg" width="722" height="717">
<path d="M0 0 C238.26 0 476.52 0 722 0 C722 236.61 722 473.22 722 717 C483.74 717 245.48 717 0 717 C0 480.39 0 243.78 0 0 Z " fill="#1D1F23" transform="translate(0,0)"/>
<path d="M0 0 C3.61805221 1.53071199 5.92899503 3.68032557 8.69326401 6.44716835 C9.15205191 6.90364856 9.6108398 7.36012877 10.08353037 7.83044171 C11.6249068 9.36650996 13.15902562 10.90962798 14.69329834 12.45278931 C15.805895 13.56451407 16.91893096 14.67579934 18.0323689 15.78668153 C21.09486761 18.84469962 24.15108082 21.90893347 27.20632672 24.97419548 C30.50056237 28.27705302 33.80056027 31.57414426 37.09986877 34.87193298 C42.8167292 40.58774376 48.52991092 46.30721045 54.24062347 52.02916336 C62.49740072 60.30218179 70.75968283 68.5696843 79.02332702 76.83584289 C92.42978472 90.24667986 105.83176827 103.66197882 119.23095703 117.08007812 C132.24847304 130.11594692 145.26808406 143.14971739 158.29052734 156.18066406 C159.09297826 156.98364043 159.89542918 157.78661679 160.72219679 158.61392577 C164.74779502 162.64213404 168.77343457 166.67030102 172.79909468 170.69844747 C206.20580532 204.12589784 239.60526331 237.56058768 273 271 C267.77129321 277.33572021 262.02908363 283.10836181 256.2180481 288.90220642 C255.11958435 290.00110672 254.02134058 291.10022693 252.92329681 292.19954687 C249.91767642 295.20739574 246.90895964 298.2121303 243.89971399 301.21635163 C240.65053097 304.46120665 237.40424823 307.70896098 234.15760803 310.95635986 C228.53627236 316.57821928 222.91311211 322.19824832 217.2887001 327.81702995 C209.1567975 335.94079734 201.02766537 344.06733239 192.89920162 352.19454045 C179.71047319 365.38108153 166.51951425 378.565389 153.32714844 391.74829102 C140.51380084 404.55245628 127.70150642 417.35767388 114.890625 430.16430664 C113.70565877 431.34887879 113.70565877 431.34887879 112.49675383 432.55738168 C108.53358154 436.51924891 104.57042993 440.48113682 100.6072886 444.44303501 C67.74139724 477.29856366 34.87188409 510.15046714 2 543 C-1.61805221 541.46928801 -3.92899503 539.31967443 -6.69326401 536.55283165 C-7.15205191 536.09635144 -7.6108398 535.63987123 -8.08353037 535.16955829 C-9.6249068 533.63349004 -11.15902562 532.09037202 -12.69329834 530.54721069 C-13.805895 529.43548593 -14.91893096 528.32420066 -16.0323689 527.21331847 C-19.09486761 524.15530038 -22.15108082 521.09106653 -25.20632672 518.02580452 C-28.50056237 514.72294698 -31.80056027 511.42585574 -35.09986877 508.12806702 C-40.8167292 502.41225624 -46.52991092 496.69278955 -52.24062347 490.97083664 C-60.49740072 482.69781821 -68.75968283 474.4303157 -77.02332702 466.16415711 C-90.42978472 452.75332014 -103.83176827 439.33802118 -117.23095703 425.91992188 C-130.24847304 412.88405308 -143.26808406 399.85028261 -156.29052734 386.81933594 C-157.09297826 386.01635957 -157.89542918 385.21338321 -158.72219679 384.38607423 C-162.74779502 380.35786596 -166.77343457 376.32969898 -170.79909468 372.30155253 C-204.20580532 338.87410216 -237.60526331 305.43941232 -271 272 C-265.77129321 265.66427979 -260.02908363 259.89163819 -254.2180481 254.09779358 C-253.11958435 252.99889328 -252.02134058 251.89977307 -250.92329681 250.80045313 C-247.91767642 247.79260426 -244.90895964 244.7878697 -241.89971399 241.78364837 C-238.65053097 238.53879335 -235.40424823 235.29103902 -232.15760803 232.04364014 C-226.53627236 226.42178072 -220.91311211 220.80175168 -215.2887001 215.18297005 C-207.1567975 207.05920266 -199.02766537 198.93266761 -190.89920162 190.80545955 C-177.71047319 177.61891847 -164.51951425 164.434611 -151.32714844 151.25170898 C-138.51380084 138.44754372 -125.70150642 125.64232612 -112.890625 112.83569336 C-112.10064751 112.0459786 -111.31067003 111.25626383 -110.49675383 110.44261832 C-106.53358154 106.48075109 -102.57042993 102.51886318 -98.6072886 98.55696499 C-65.74139724 65.70143634 -32.87188409 32.84953286 0 0 Z " fill="#2AD5A3" transform="translate(376,88)"/>
<path d="M0 0 C0.66 0.33 1.32 0.66 2 1 C-3.59078493 7.63513972 -9.63450587 13.76560805 -15.78158569 19.88165283 C-16.86783182 20.96618416 -17.95385118 22.05094266 -19.03966486 23.13590693 C-22.00689498 26.09956936 -24.97722227 29.06011026 -27.94806361 32.02015209 C-31.15776993 35.2193321 -34.36451358 38.42147921 -37.57156372 41.62332153 C-43.12322847 47.16529577 -48.67656081 52.70559432 -54.23087692 58.24491119 C-63.00635353 66.99698161 -71.77661531 75.75426745 -80.54605103 84.51239014 C-83.54806767 87.51040595 -86.55011823 90.5083878 -89.55217934 93.5063591 C-90.30226701 94.25542755 -91.05235469 95.004496 -91.8251723 95.77626349 C-100.35311338 104.2924742 -108.88213011 112.80760726 -117.41162109 121.32226562 C-118.19094134 122.10023344 -118.97026159 122.87820126 -119.77319761 123.67974386 C-132.42420395 136.30853239 -145.0790321 148.93348594 -157.73481266 161.55748978 C-170.72999302 174.52031966 -183.71944137 187.48887462 -196.7039696 200.46237445 C-204.71366579 208.46483714 -212.72807963 216.46251662 -220.74856348 224.45416757 C-226.23727812 229.92393314 -231.72057378 235.39909142 -237.1995763 240.87858537 C-240.36345716 244.04240301 -243.52977944 247.20367618 -246.70264435 250.35848618 C-249.60415297 253.24357958 -252.49873447 256.1354353 -255.38784845 259.03293905 C-256.43683785 260.08250481 -257.48839908 261.12950741 -258.54270415 262.17373338 C-259.97027152 263.58837704 -261.3878089 265.01312126 -262.80475426 266.43840408 C-263.99233363 267.62346161 -263.99233363 267.62346161 -265.20390451 268.83245969 C-266.98542024 270.98240505 -267.62139199 272.2696267 -268 275 C-268.99 273.68 -269.98 272.36 -271 271 C-181.57 181.57 -92.14 92.14 0 0 Z " fill="#3ACDA3" transform="translate(376,88)"/>
<path d="M0 0 C4.67692308 1.47692308 4.67692308 1.47692308 6.3125 4.125 C6.539375 4.74375 6.76625 5.3625 7 6 C7.66 6 8.32 6 9 6 C9 6.66 9 7.32 9 8 C9.66 8 10.32 8 11 8 C11 8.66 11 9.32 11 10 C11.66 10 12.32 10 13 10 C13 10.66 13 11.32 13 12 C13.66 12 14.32 12 15 12 C15 12.66 15 13.32 15 14 C15.66 14 16.32 14 17 14 C17 14.66 17 15.32 17 16 C17.61875 16.2475 18.2375 16.495 18.875 16.75 C21.35068687 18.20628639 21.95125002 19.37812506 23 22 C23.66 22 24.32 22 25 22 C25 22.66 25 23.32 25 24 C25.66 24 26.32 24 27 24 C27 24.66 27 25.32 27 26 C27.66 26 28.32 26 29 26 C29 26.66 29 27.32 29 28 C29.66 28 30.32 28 31 28 C31 28.66 31 29.32 31 30 C31.66 30 32.32 30 33 30 C33 30.66 33 31.32 33 32 C33.61875 32.2475 34.2375 32.495 34.875 32.75 C37.35068687 34.20628639 37.95125002 35.37812506 39 38 C39.66 38 40.32 38 41 38 C41 38.66 41 39.32 41 40 C41.66 40 42.32 40 43 40 C43 40.66 43 41.32 43 42 C43.66 42 44.32 42 45 42 C45 42.66 45 43.32 45 44 C45.66 44 46.32 44 47 44 C47 44.66 47 45.32 47 46 C47.66 46 48.32 46 49 46 C49 46.66 49 47.32 49 48 C49.61875 48.2475 50.2375 48.495 50.875 48.75 C53.35068687 50.20628639 53.95125002 51.37812506 55 54 C55.66 54 56.32 54 57 54 C57 54.66 57 55.32 57 56 C57.66 56 58.32 56 59 56 C59 56.66 59 57.32 59 58 C59.66 58 60.32 58 61 58 C61 58.66 61 59.32 61 60 C61.66 60 62.32 60 63 60 C63 60.66 63 61.32 63 62 C63.66 62 64.32 62 65 62 C65 62.66 65 63.32 65 64 C65.61875 64.2475 66.2375 64.495 66.875 64.75 C69.35068687 66.20628639 69.95125002 67.37812506 71 70 C71.66 70 72.32 70 73 70 C73 70.66 73 71.32 73 72 C73.66 72 74.32 72 75 72 C75 72.66 75 73.32 75 74 C75.66 74 76.32 74 77 74 C77 74.66 77 75.32 77 76 C77.66 76 78.32 76 79 76 C79 76.66 79 77.32 79 78 C79.66 78 80.32 78 81 78 C81 78.66 81 79.32 81 80 C81.61875 80.2475 82.2375 80.495 82.875 80.75 C85.35068687 82.20628639 85.95125002 83.37812506 87 86 C87.66 86 88.32 86 89 86 C89 86.66 89 87.32 89 88 C89.66 88 90.32 88 91 88 C91 88.66 91 89.32 91 90 C91.66 90 92.32 90 93 90 C93 90.66 93 91.32 93 92 C93.66 92 94.32 92 95 92 C95 92.66 95 93.32 95 94 C95.66 94 96.32 94 97 94 C97 94.66 97 95.32 97 96 C97.61875 96.2475 98.2375 96.495 98.875 96.75 C101.35068687 98.20628639 101.95125002 99.37812506 103 102 C103.66 102 104.32 102 105 102 C105 102.66 105 103.32 105 104 C105.66 104 106.32 104 107 104 C107 104.66 107 105.32 107 106 C107.66 106 108.32 106 109 106 C109 106.66 109 107.32 109 108 C109.66 108 110.32 108 111 108 C111 108.66 111 109.32 111 110 C111.66 110 112.32 110 113 110 C113 110.66 113 111.32 113 112 C113.66 112.33 114.32 112.66 115 113 C112 113 112 113 109.88171101 111.2536478 C109.05854987 110.42902011 108.23538874 109.60439241 107.38728333 108.754776 C106.69740162 108.06979755 106.69740162 108.06979755 105.9935829 107.37098116 C104.44788435 105.83258979 102.91317883 104.28367536 101.37817383 102.73461914 C100.27493393 101.63216973 99.17104132 100.53037318 98.06654358 99.42918396 C95.06408905 96.43187423 92.07107585 93.42529397 89.07975984 90.41687322 C85.95379666 87.27590662 82.81976191 84.14301412 79.68669128 81.00914001 C74.42680023 75.74555361 69.17258509 70.47635641 63.92211914 65.20336914 C57.17308072 58.42544142 50.41479122 51.65681721 43.65352345 44.89109135 C37.85224317 39.08583725 32.05523285 33.2763247 26.25890517 27.4661262 C24.38977348 25.59288803 22.52004965 23.72024241 20.65024757 21.84767342 C17.71838415 18.91093082 14.78918715 15.97155392 11.86208153 13.03006935 C10.78414717 11.94759736 9.70535557 10.86597829 8.62567139 9.78525162 C7.15869766 8.3165428 5.69482442 6.84481494 4.23176575 5.37220764 C3.40973569 4.54720292 2.58770563 3.7221982 1.74076557 2.87219334 C0 1 0 1 0 0 Z " fill="#3AB795" transform="translate(117,371)"/>
<path d="M0 0 C3.15649355 1.3905258 5.23989506 3.02033143 7.625 5.5 C8.21539062 6.1084375 8.80578125 6.716875 9.4140625 7.34375 C10.19910156 8.16359375 10.19910156 8.16359375 11 9 C11.66 9.66 12.32 10.32 13 11 C9 11 9 11 6.640625 9.1015625 C5.85171875 8.28429687 5.0628125 7.46703125 4.25 6.625 C3.05117188 5.40683594 3.05117188 5.40683594 1.828125 4.1640625 C0 2 0 2 0 0 Z " fill="#3AB593" transform="translate(366,619)"/>
</svg>
